<?xml version="1.0" standalone="no"?>
<!DOCTYPE svg PUBLIC "-//W3C//DTD SVG 20010904//EN"
 "http://www.w3.org/TR/2001/REC-SVG-20010904/DTD/svg10.dtd">
<svg version="1.0" xmlns="http://www.w3.org/2000/svg"
 width="1024.000000pt" height="1024.000000pt" viewBox="0 0 1024.000000 1024.000000"
 preserveAspectRatio="xMidYMid meet">

<g transform="translate(0.000000,1024.000000) scale(0.100000,-0.100000)"
fill="#000000" stroke="none">
<path d="M6569 6919 c-262 -19 -599 -142 -799 -292 -76 -56 -173 -150 -231
-223 -69 -87 -139 -204 -139 -233 0 -13 29 -72 64 -130 35 -58 73 -125 85
-149 l22 -43 66 103 c122 193 236 318 404 444 435 326 955 432 1434 292 65
-19 214 -87 243 -110 6 -6 12 -8 12 -4 0 14 -191 131 -295 181 -211 102 -383
150 -595 165 -69 5 -132 9 -140 8 -8 0 -67 -5 -131 -9z"/>
<path d="M3417 6899 c-244 -28 -501 -116 -697 -239 -483 -302 -801 -817 -871
-1414 -7 -61 -9 -172 -6 -290 6 -210 29 -347 87 -525 84 -259 275 -559 481
-756 447 -428 1069 -599 1629 -450 270 73 504 206 691 395 136 137 228 272
229 335 0 11 -32 75 -71 143 l-70 122 -51 -76 c-173 -259 -529 -524 -857 -638
-167 -58 -244 -71 -431 -70 -145 1 -177 4 -265 27 -193 52 -339 140 -489 298
-198 206 -316 475 -347 784 -9 101 -2 288 11 280 4 -2 10 -44 13 -93 17 -237
101 -452 250 -637 153 -190 352 -315 574 -361 119 -25 376 -15 505 19 239 63
432 173 600 339 126 126 231 273 272 379 l17 45 -87 154 c-80 139 -89 151
-102 134 -7 -11 -35 -53 -62 -94 -59 -93 -181 -216 -276 -279 -80 -54 -209
-104 -310 -122 -97 -17 -264 -7 -344 20 -220 76 -394 268 -465 515 -21 74 -25
109 -25 215 0 141 14 215 60 323 86 201 244 350 435 411 102 32 325 32 439 -1
165 -48 336 -163 468 -316 113 -132 229 -310 726 -1111 227 -366 322 -494 495
-669 258 -260 558 -422 913 -493 122 -24 381 -23 519 1 265 48 511 155 730
319 129 96 286 267 395 429 151 225 213 360 275 602 77 303 69 589 -26 891
-77 244 -194 437 -382 626 -181 183 -395 298 -657 355 -106 23 -421 26 -515 6
-345 -75 -666 -273 -860 -530 -65 -86 -175 -288 -175 -320 0 -9 38 -86 84
-171 70 -127 85 -149 91 -131 14 45 119 187 193 263 190 195 413 288 651 274
182 -11 314 -70 441 -197 98 -97 155 -198 191 -335 30 -114 31 -337 1 -446
-72 -265 -280 -472 -527 -524 -89 -19 -262 -19 -357 -1 -303 58 -540 266 -798
701 -282 474 -566 917 -719 1120 -105 138 -323 356 -455 453 -330 243 -763
359 -1169 311z"/>
</g>
</svg>
